<svg width="42" height="42" viewBox="0 0 42 42" fill="none" xmlns="http://www.w3.org/2000/svg">

<!-- Background Shape -->
<path opacity="0.15" fill-rule="evenodd" clip-rule="evenodd"
d="M21 4C13.268 4 7 10.268 7 18C7 18.338 7.012 18.674 7.035 19.006C3.59 20.145 1 23.39 1 27.2C1 32.06 4.94 36 9.8 36H31.5C36.194 36 40 32.194 40 27.5C40 22.806 36.194 19 31.5 19C30.89 19 30.294 19.06 29.717 19.175C28.34 10.96 25.01 4 21 4Z"
fill="url(#bg_gradient)"/>

<!-- Cloud -->
<path d="M30.5 27H11.8C9.701 27 8 25.299 8 23.2C8 21.101 9.701 19.4 11.8 19.4C12.224 19.4 12.63 19.468 13.01 19.594C13.95 16.85 16.51 14.9 19.5 14.9C22.99 14.9 25.9 17.81 25.9 21.3H30.5C32.433 21.3 34 22.867 34 24.8C34 26.733 32.433 27 30.5 27Z"
fill="url(#main_gradient)"
stroke="url(#main_gradient)"
stroke-width="0.25"/>

<!-- Server Blocks -->
<rect x="14" y="28.5" width="4.5" height="3.5" rx="0.5" fill="url(#main_gradient)"/>
<rect x="19.5" y="28.5" width="4.5" height="3.5" rx="0.5" fill="url(#main_gradient)"/>
<rect x="25" y="28.5" width="4.5" height="3.5" rx="0.5" fill="url(#main_gradient)"/>

<defs>
<linearGradient id="bg_gradient" x1="2" y1="4" x2="40" y2="38" gradientUnits="userSpaceOnUse">
<stop offset="0.25" stop-color="#FFDB6E"/>
<stop offset="1" stop-color="#FFBC5E"/>
</linearGradient>

<linearGradient id="main_gradient" x1="8" y1="14" x2="34" y2="32" gradientUnits="userSpaceOnUse">
<stop offset="0.25" stop-color="#FFDB6E"/>
<stop offset="1" stop-color="#FFBC5E"/>
</linearGradient>
</defs>

</svg>
